# xmcd CD database file
#
# Track frame offsets:
#	150
#	17850
#	39000
#	58800
#	79050
#	93000
#	111150
#	128250
#	150300
#	168750
#
# Disc length: 2502 seconds
#
# Revision: 0
# Processed by: cddbd v1.5.1PL2 Copyright (c) Steve Scherf et al.
# Submitted via: CDex 1.50
#
DISCID=6109c40a
DTITLE=Heberto Castillo Juarez - Barroco en swing
DYEAR=2002
DGENRE=Jazz
TTITLE0=Barroco en swing
TTITLE1=Reflexion
TTITLE2=Pastoral
TTITLE3=Jarocho y trovador
TTITLE4=Pequeño preludio
TTITLE5=Estudio en 5
TTITLE6=Jugando con notas
TTITLE7=Presentimiento
TTITLE8=Recuerdos
TTITLE9=El blues de Brandenburgo
EXTD=YEAR: 2002
EXTT0=
EXTT1=
EXTT2=
EXTT3=
EXTT4=
EXTT5=
EXTT6=
EXTT7=
EXTT8=
EXTT9=
PLAYORDER=
